<svg xmlns="http://www.w3.org/2000/svg" viewBox="0 0 256 256" role="img" aria-label="Smart Change Request Portal icon">
  <defs>
    <linearGradient id="docBlue" x1="0%" y1="0%" x2="100%" y2="100%">
      <stop offset="0%" stop-color="#38bdf8" />
      <stop offset="60%" stop-color="#2563eb" />
      <stop offset="100%" stop-color="#1d4ed8" />
    </linearGradient>
    <linearGradient id="accentGreen" x1="0%" y1="0%" x2="100%" y2="100%">
      <stop offset="0%" stop-color="#4ade80" />
      <stop offset="100%" stop-color="#22c55e" />
    </linearGradient>
    <linearGradient id="accentCyan" x1="0%" y1="0%" x2="100%" y2="100%">
      <stop offset="0%" stop-color="#22c55e" />
      <stop offset="100%" stop-color="#06b6d4" />
    </linearGradient>
    <filter id="softShadow" x="-20%" y="-20%" width="140%" height="140%">
      <feDropShadow dx="0" dy="10" stdDeviation="10" flood-color="#0f172a" flood-opacity="0.18" />
    </filter>
  </defs>

  <rect width="256" height="256" rx="36" fill="#f8fafc" />

  <g filter="url(#softShadow)">
    <path d="M88 26h104c9.941 0 18 8.059 18 18v160c0 9.941-8.059 18-18 18H80c-9.941 0-18-8.059-18-18V62z" fill="url(#docBlue)" />
    <path d="M88 26v36H52z" fill="#1e3a8a" />
    <rect x="113" y="42" width="57" height="12" rx="6" fill="#ffffff" opacity="0.92" />
    <rect x="90" y="79" width="84" height="12" rx="6" fill="#ffffff" opacity="0.92" />
    <rect x="90" y="103" width="74" height="12" rx="6" fill="#ffffff" opacity="0.92" />
    <rect x="90" y="127" width="68" height="12" rx="6" fill="#ffffff" opacity="0.92" />
    <rect x="90" y="151" width="60" height="12" rx="6" fill="#ffffff" opacity="0.92" />
  </g>

  <path d="M34 73c-19 13-28 33-28 56 0 19 7 34 21 46" fill="none" stroke="url(#accentGreen)" stroke-width="22" stroke-linecap="round" />
  <path d="M31 90l-20 21 27 2z" fill="#22c55e" />

  <path d="M226 75c15 13 24 31 24 53 0 20-8 37-24 50" fill="none" stroke="url(#accentCyan)" stroke-width="22" stroke-linecap="round" />
  <path d="M223 184l30 0-16 23z" fill="#06b6d4" />

  <path d="M44 186c28 30 70 46 114 41 22-3 43-12 59-27" fill="none" stroke="url(#accentCyan)" stroke-width="18" stroke-linecap="round" />

  <circle cx="149" cy="136" r="40" fill="#ffffff" />
  <path d="M130 137l13 13 29-31" fill="none" stroke="url(#accentGreen)" stroke-width="12" stroke-linecap="round" stroke-linejoin="round" />
</svg>
